<svg xmlns="http://www.w3.org/2000/svg" xmlns:xlink="http://www.w3.org/1999/xlink"><symbol id="icon-arrow" viewBox="0 0 20 9">
<path d="M15.176 8.77059C14.9069 8.47939 14.9069 8.01776 15.176 7.7266L17.5442 5.25069L0.719178 5.25069C0.32198 5.25069 0 4.91427 0 4.49926C0 4.08426 0.32198 3.74784 0.719178 3.74784L17.5443 3.74784L15.176 1.27342C14.9001 0.974911 14.908 0.499233 15.1937 0.210938C15.4724 -0.0703127 15.9142 -0.0703127 16.1929 0.210938L19.7887 3.96798C20.0699 4.26107 20.0705 4.73684 19.79 5.03064L19.7887 5.032L16.1929 8.78904C15.9072 9.07738 15.452 9.0691 15.176 8.77059Z" fill="white"/>
</symbol><symbol id="icon-download" viewBox="0 0 14 14">
<path d="M0.538472 9.64258C0.835867 9.64258 1.07694 9.88242 1.07694 10.1783V12.3926C1.07694 12.6885 1.31802 12.9283 1.61541 12.9283H12.3846C12.682 12.9283 12.9231 12.6885 12.9231 12.3926V10.1783C12.9231 9.88242 13.1641 9.64258 13.4615 9.64258C13.7589 9.64258 14 9.88242 14 10.1783V12.3926C14 13.2802 13.2768 13.9997 12.3846 13.9997H1.61538C0.72323 13.9997 9.53674e-07 13.2802 9.53674e-07 12.3926V10.1783C9.53674e-07 9.88242 0.241077 9.64258 0.538472 9.64258Z" fill="white"/>
<path d="M3.93912 7.2641C4.14779 7.06362 4.4786 7.06362 4.68724 7.2641L6.46148 9.02819V0.535724C6.46148 0.239847 6.70256 0 6.99995 0C7.29735 0 7.53842 0.239847 7.53842 0.535724V9.02822L9.31159 7.2641C9.5255 7.05857 9.86637 7.06447 10.073 7.27726C10.2745 7.48487 10.2745 7.81399 10.073 8.0216L7.38067 10.7002C7.17064 10.9096 6.8297 10.9101 6.61917 10.7011L6.61819 10.7002L3.9259 8.0216C3.71927 7.80878 3.72521 7.46964 3.93912 7.2641Z" fill="white"/>
</symbol><symbol id="icon-logo-arrow" viewBox="0 0 25 86">
<path opacity="0.6" d="M0 0L1.81818 0L25 43L1.81818 86H0L23.1818 43L0 0Z" fill="white"/>
</symbol><symbol id="icon-operator" viewBox="0 0 40 48">
<path d="M19.28 0.0129651C8.44 0.402965 0 9.64296 0 20.493V27.573C0 28.2201 0.257071 28.8407 0.714659 29.2983C1.17225 29.7559 1.79287 30.013 2.44 30.013H4.56C5.20713 30.013 5.82775 29.7559 6.28534 29.2983C6.74293 28.8407 7 28.2201 7 27.573V20.453C7 19.8058 6.74293 19.1852 6.28534 18.7276C5.82775 18.27 5.20713 18.013 4.56 18.013H4.14C4.63591 14.0621 6.5872 10.4381 9.61256 7.84913C12.6379 5.26019 16.5199 3.89237 20.5 4.01297C24.2843 4.19084 27.8868 5.68859 30.6818 8.24609C33.4768 10.8036 35.2877 14.2593 35.8 18.013H35.44C34.7929 18.013 34.1722 18.27 33.7147 18.7276C33.2571 19.1852 33 19.8058 33 20.453V27.573C32.997 28.2039 33.2394 28.8112 33.6761 29.2666C34.1128 29.7219 34.7095 29.9896 35.34 30.013C34.9062 33.2246 33.4767 36.2195 31.2525 38.5765C29.0282 40.9334 26.1211 42.534 22.94 43.153C22.6024 42.4813 22.048 41.9431 21.3666 41.6255C20.6851 41.308 19.9165 41.2296 19.185 41.4031C18.4535 41.5766 17.8019 41.9918 17.3357 42.5816C16.8694 43.1714 16.6158 43.9012 16.6158 44.653C16.6158 45.4048 16.8694 46.1346 17.3357 46.7243C17.8019 47.3141 18.4535 47.7293 19.185 47.9028C19.9165 48.0763 20.6851 47.9979 21.3666 47.6804C22.048 47.3628 22.6024 46.8247 22.94 46.153C26.9476 45.5109 30.6326 43.568 33.4266 40.6241C36.2205 37.6801 37.9682 33.8986 38.4 29.863C38.8683 29.6898 39.2724 29.3776 39.5584 28.9684C39.8443 28.5591 39.9984 28.0722 40 27.573V20.013C40.0017 17.3248 39.4616 14.6639 38.4117 12.1893C37.3619 9.71459 35.824 7.47696 33.8899 5.61006C31.9558 3.74316 29.6652 2.28531 27.155 1.32364C24.6447 0.361961 21.9664 -0.0838084 19.28 0.0129651Z" fill="white"/>
</symbol><symbol id="icon-planet" viewBox="0 0 48 48">
<path d="M48 22.5C47.6327 16.6578 45.1428 11.1512 40.999 7.01656C36.8551 2.88193 31.343 0.404325 25.5 0.05V0H22.5V0.05C16.6658 0.416059 11.1658 2.89884 7.03233 7.03233C2.89884 11.1658 0.416059 16.6658 0.05 22.5H0V25.5H0.05C0.404325 31.343 2.88193 36.8551 7.01656 40.999C11.1512 45.1428 16.6578 47.6327 22.5 48H25.5C31.3511 47.6444 36.8698 45.1597 41.0148 41.0148C45.1597 36.8698 47.6444 31.3511 48 25.5V22.5ZM44 22.5H36.6C36.38 15.82 34.73 9.88 32.22 5.79C35.4901 7.26921 38.3019 9.60115 40.3605 12.5412C42.4191 15.4813 43.6486 18.9212 43.92 22.5H44ZM27.07 43.74C26.55 43.82 26.07 43.88 25.5 43.92V25.5H33.59C33.29 34.37 30.38 41.08 27.07 43.74ZM14.41 25.5H22.5V43.92C21.97 43.92 21.45 43.82 20.93 43.74C17.62 41.08 14.71 34.37 14.41 25.5ZM20.93 4.26C21.45 4.18 21.93 4.12 22.5 4.08V22.5H14.41C14.71 13.63 17.62 6.92 20.93 4.26ZM25.5 22.5V4.08C26.03 4.08 26.55 4.18 27.07 4.26C30.38 6.92 33.29 13.63 33.59 22.5H25.5ZM15.78 5.79C13.27 9.88 11.62 15.79 11.4 22.5H4.08C4.35142 18.9212 5.58089 15.4813 7.63947 12.5412C9.69805 9.60115 12.5099 7.26921 15.78 5.79ZM4.08 25.5H11.4C11.62 32.18 13.27 38.12 15.78 42.21C12.5099 40.7308 9.69805 38.3989 7.63947 35.4588C5.58089 32.5187 4.35142 29.0788 4.08 25.5ZM32.22 42.21C34.73 38.12 36.38 32.21 36.6 25.5H43.92C43.6486 29.0788 42.4191 32.5187 40.3605 35.4588C38.3019 38.3989 35.4901 40.7308 32.22 42.21Z" fill="white"/>
</symbol><symbol id="icon-pointer" viewBox="0 0 48 48">
<path d="M23.9601 18.6788C25.0232 18.6768 26.063 18.9904 26.9478 19.5798C27.8326 20.1692 28.5226 21.008 28.9304 21.9898C29.3381 22.9716 29.4453 24.0524 29.2384 25.0952C29.0315 26.138 28.5197 27.096 27.768 27.8477C27.0162 28.5995 26.0583 29.1112 25.0155 29.3181C23.9727 29.5251 22.8919 29.4179 21.91 29.0101C20.9282 28.6023 20.0895 27.9124 19.5001 27.0276C18.9106 26.1428 18.5971 25.103 18.599 24.0398C18.6017 22.6188 19.1673 21.2567 20.1722 20.2519C21.177 19.2471 22.5391 18.6814 23.9601 18.6788ZM23.9601 14.6854C22.1076 14.6854 20.2967 15.2349 18.7565 16.2643C17.2163 17.2937 16.016 18.7568 15.3076 20.4685C14.5991 22.1802 14.4142 24.0636 14.7764 25.8804C15.1385 27.6972 16.0314 29.3657 17.342 30.675C18.6526 31.9842 20.3221 32.8753 22.1393 33.2355C23.9565 33.5957 25.8397 33.4088 27.5506 32.6985C29.2616 31.9882 30.7234 30.7864 31.7512 29.2451C32.7789 27.7039 33.3265 25.8924 33.3245 24.0398C33.3245 22.8106 33.0822 21.5933 32.6115 20.4578C32.1407 19.3222 31.4508 18.2905 30.5811 17.4217C29.7114 16.553 28.679 15.8641 27.5429 15.3946C26.4069 14.9251 25.1894 14.6841 23.9601 14.6854Z" fill="white"/>
<path d="M46.0033 21.9634H43.1082C42.6304 17.5902 40.6668 13.5133 37.5453 10.4136C34.4237 7.3138 30.3331 5.37882 25.9567 4.93178V1.99667C25.9567 1.46712 25.7464 0.95926 25.3719 0.584812C24.9975 0.210363 24.4896 0 23.9601 0C23.4305 0 22.9227 0.210363 22.5482 0.584812C22.1738 0.95926 21.9634 1.46712 21.9634 1.99667V4.93178C17.6013 5.39599 13.5294 7.33855 10.4239 10.4368C7.31836 13.535 5.36627 17.6024 4.89185 21.9634H1.99667C1.46712 21.9634 0.95926 22.1738 0.584812 22.5482C0.210363 22.9227 0 23.4305 0 23.9601C0 24.4896 0.210363 24.9975 0.584812 25.3719C0.95926 25.7464 1.46712 25.9567 1.99667 25.9567H4.88186C5.32015 30.3497 7.25755 34.4578 10.3683 37.5904C13.4791 40.723 17.5736 42.6891 21.9634 43.1581V46.0033C21.9634 46.5329 22.1738 47.0407 22.5482 47.4152C22.9227 47.7896 23.4305 48 23.9601 48C24.4896 48 24.9975 47.7896 25.3719 47.4152C25.7464 47.0407 25.9567 46.5329 25.9567 46.0033V43.1581C30.3616 42.7082 34.4757 40.7503 37.6029 37.6158C40.7302 34.4813 42.6785 30.3626 43.1181 25.9567H46.0033C46.5329 25.9567 47.0407 25.7464 47.4152 25.3719C47.7896 24.9975 48 24.4896 48 23.9601C48 23.4305 47.7896 22.9227 47.4152 22.5482C47.0407 22.1738 46.5329 21.9634 46.0033 21.9634ZM23.9601 39.2646C20.9506 39.2567 18.011 38.3571 15.5126 36.6794C13.0142 35.0017 11.069 32.6212 9.92285 29.8385C8.77666 27.0559 8.48085 23.996 9.0728 21.0454C9.66474 18.0947 11.1179 15.3857 13.2487 13.2605C15.3795 11.1352 18.0923 9.68921 21.0445 9.10499C23.9967 8.52077 27.0558 8.82459 29.8354 9.97807C32.615 11.1316 34.9904 13.0829 36.6616 15.5857C38.3327 18.0886 39.2246 21.0305 39.2246 24.0399C39.222 26.0419 38.8251 28.0237 38.0566 29.8723C37.288 31.7208 36.1629 33.3999 34.7455 34.8136C33.328 36.2274 31.646 37.3481 29.7954 38.1118C27.9449 38.8755 25.962 39.2672 23.9601 39.2646Z" fill="white"/>
</symbol><symbol id="icon-thick-arrow" viewBox="0 0 64 12">
<path d="M0 0H59L64 6L59 12H0L5 6L0 0Z"/>
</symbol><symbol id="icon-tree-leaf" viewBox="0 0 10 18">
<path d="M10 9.56184C10 4.40092 5.5661 0.317377 5.37733 0.146153C5.16269 -0.0486795 4.83776 -0.0487559 4.62298 0.146153C4.4342 0.317453 9.20285e-09 4.40092 9.20285e-09 9.56184C9.20285e-09 10.8082 0.531272 12.0802 1.45759 13.052C2.28695 13.9221 3.32793 14.4563 4.43473 14.593V17.427C4.43473 17.7434 4.68781 18 5.00015 18C5.31249 18 5.56557 17.7434 5.56557 17.427V14.593C6.6723 14.4563 7.71313 13.922 8.54241 13.052C9.46873 12.0802 10 10.8081 10 9.56184ZM2.1134 5.51513L4.43473 7.86794V10.2624L1.46256 7.24983C1.63219 6.64279 1.8567 6.06165 2.1134 5.51513ZM5.56557 10.2632V7.86848L7.8869 5.51566C8.14368 6.06249 8.36819 6.64386 8.53782 7.2512L5.56557 10.2632ZM7.33218 4.45952C7.32321 4.46762 7.31394 4.47541 7.30534 4.4842L5.56557 6.24762V1.99706C6.08463 2.59822 6.74105 3.44348 7.33218 4.45952ZM4.43473 1.99699V6.24701L2.69549 4.4842C2.68659 4.47526 2.67732 4.46731 2.66804 4.45906C3.2594 3.4431 3.91567 2.59799 4.43473 1.99699ZM1.13085 9.56184C1.13085 9.23567 1.15294 8.91362 1.19154 8.59608L4.4348 11.8833V13.4365C2.50995 13.1228 1.13085 11.2515 1.13085 9.56184ZM5.56557 13.4364V11.8839L8.80854 8.59746C8.84714 8.91454 8.86923 9.23612 8.86923 9.56184C8.86915 11.2515 7.4902 13.1228 5.56557 13.4364Z" fill="white"/>
</symbol><symbol id="icon-umbrella" viewBox="0 0 43 48">
<path d="M23 3.33V2C23 1.46957 22.7893 0.960859 22.4142 0.585786C22.0391 0.210714 21.5304 0 21 0C20.4696 0 19.9609 0.210714 19.5858 0.585786C19.2107 0.960859 19 1.46957 19 2V3.33C13.7995 3.84114 8.97478 6.26742 5.46338 10.1374C1.95198 14.0073 0.00471991 19.0445 3.40617e-06 24.27C-0.000589996 24.5916 0.0763591 24.9085 0.224327 25.194C0.372295 25.4795 0.586919 25.7251 0.850003 25.91C1.11333 26.094 1.41712 26.2119 1.73566 26.2537C2.0542 26.2955 2.37812 26.2599 2.68 26.15C7.92278 24.2009 13.666 24.0566 19 25.74V41.91C19 42.4643 18.7798 42.9959 18.3879 43.3879C17.9959 43.7798 17.4643 44 16.91 44C16.3557 44 15.8241 43.7798 15.4322 43.3879C15.0402 42.9959 14.82 42.4643 14.82 41.91C14.82 41.3796 14.6093 40.8709 14.2342 40.4958C13.8591 40.1207 13.3504 39.91 12.82 39.91C12.2896 39.91 11.7809 40.1207 11.4058 40.4958C11.0307 40.8709 10.82 41.3796 10.82 41.91C10.82 42.7098 10.9775 43.5017 11.2836 44.2405C11.5896 44.9794 12.0382 45.6508 12.6037 46.2163C13.1692 46.7818 13.8406 47.2304 14.5795 47.5364C15.3183 47.8425 16.1103 48 16.91 48C17.7098 48 18.5017 47.8425 19.2405 47.5364C19.9794 47.2304 20.6508 46.7818 21.2163 46.2163C21.7818 45.6508 22.2304 44.9794 22.5364 44.2405C22.8425 43.5017 23 42.7098 23 41.91V25.74C28.3463 24.0474 34.1052 24.1918 39.36 26.15C39.6619 26.2599 39.9858 26.2955 40.3043 26.2537C40.6229 26.2119 40.9267 26.094 41.19 25.91C41.4531 25.7251 41.6677 25.4795 41.8157 25.194C41.9636 24.9085 42.0406 24.5916 42.04 24.27C42.0343 19.0382 40.0815 13.9958 36.5618 10.1249C33.0421 6.25404 28.2077 3.83181 23 3.33ZM21 22.17C15.5812 20.3176 9.74068 20.0814 4.19 21.49C4.78959 17.4591 6.81727 13.7776 9.90364 11.1164C12.99 8.45513 16.9297 6.99115 21.005 6.99115C25.0803 6.99115 29.02 8.45513 32.1064 11.1164C35.1927 13.7776 37.2204 17.4591 37.82 21.49C32.266 20.0811 26.4222 20.3174 21 22.17Z" fill="white"/>
</symbol></svg>