<svg width="1050" height="543" viewBox="0 0 1050 543" fill="none" xmlns="http://www.w3.org/2000/svg">
<circle opacity="0.4" cx="13" cy="213" r="13" fill="white"/>
<circle cx="13" cy="213" r="6.93333" fill="white"/>
<circle opacity="0.4" cx="56" cy="318" r="13" fill="white"/>
<circle cx="56" cy="318" r="6.93333" fill="white"/>
<circle opacity="0.4" cx="179" cy="364" r="13" fill="white"/>
<circle cx="179" cy="364" r="6.93333" fill="white"/>
<circle opacity="0.4" cx="239" cy="266" r="13" fill="white"/>
<circle cx="239" cy="266" r="6.93333" fill="white"/>
<circle opacity="0.4" cx="342" cy="308" r="13" fill="white"/>
<circle cx="342" cy="308" r="6.93333" fill="white"/>
<circle opacity="0.4" cx="442" cy="348" r="13" fill="white"/>
<circle cx="442" cy="348" r="6.93333" fill="white"/>
<circle opacity="0.4" cx="449" cy="185" r="13" fill="white"/>
<circle cx="449" cy="185" r="6.93333" fill="white"/>
<circle opacity="0.4" cx="521" cy="108" r="13" fill="white"/>
<circle cx="521" cy="108" r="6.93333" fill="white"/>
<circle opacity="0.4" cx="641" cy="53" r="13" fill="white"/>
<circle cx="641" cy="53" r="6.93333" fill="white"/>
<circle opacity="0.4" cx="750" cy="200" r="13" fill="white"/>
<circle cx="750" cy="200" r="6.93333" fill="white"/>
<circle opacity="0.4" cx="696" cy="390" r="13" fill="white"/>
<circle cx="696" cy="390" r="6.93333" fill="white"/>
<circle opacity="0.4" cx="527" cy="423" r="13" fill="white"/>
<circle cx="527" cy="423" r="6.93333" fill="white"/>
<circle opacity="0.4" cx="1037" cy="415" r="13" fill="white"/>
<circle cx="1037" cy="415" r="6.93333" fill="white"/>
<circle opacity="0.4" cx="960" cy="530" r="13" fill="white"/>
<circle cx="960" cy="530" r="6.93333" fill="white"/>
<circle opacity="0.4" cx="828" cy="364" r="13" fill="white"/>
<circle cx="828" cy="364" r="6.93333" fill="white"/>
<circle opacity="0.4" cx="576" cy="277" r="13" fill="white"/>
<circle cx="576" cy="277" r="6.93333" fill="white"/>
<path opacity="0.4" d="M57 311C83.6356 202.814 196.641 207.807 239.327 259.5" stroke="white"/>
<path opacity="0.4" d="M520 102.717C515.425 92.4711 503.589 86 493.517 86C468.379 86 448 123.422 448 169.585C448 173.457 448.143 177.268 448.421 181" stroke="white"/>
<path opacity="0.4" d="M14 206.226C18.7135 193.538 24.6065 186 31 186C46.464 186 59 230.1 59 284.5C59 293.863 58.6287 302.92 57.935 311.5" stroke="white"/>
<path opacity="0.4" d="M520.277 101C520.094 98.2013 520 95.366 520 92.5C520 41.9659 549.09 1 584.974 1C608.842 1 629.705 19.1238 641 46.132" stroke="white"/>
<path opacity="0.4" d="M342 310C342 217.768 371.311 143 407.468 143C423.047 143 436.868 156.442 447.975 179.5" stroke="white"/>
<path opacity="0.4" d="M343 302C331.768 262.342 308.035 235 280.573 235C264.525 235 249.751 244.337 238 260.012" stroke="white"/>
<path opacity="0.4" d="M444 344C433.041 305.526 409.884 279 383.089 279C366.717 279 351.703 288.903 340 305.384" stroke="white"/>
<path opacity="0.4" d="M575.338 273.5C560.68 210.91 526.401 167 486.451 167C470.057 167 458.197 171.992 443 184.419" stroke="white"/>
<path opacity="0.4" d="M697 384C685.849 308.207 653.448 251 614.415 251C600.226 251 586.6 258.178 574.683 271" stroke="white"/>
<path opacity="0.4" d="M1039 411.084C1030.84 396.54 1020.89 388 1010.16 388C982.455 388 960 444.842 960 514.96C960 518.68 960.063 522.362 960.187 526" stroke="white"/>
<path opacity="0.4" d="M960 535C960 531.984 959.972 528.984 959.915 526C957.871 417.786 922.152 332 874.674 332C858.499 332 842.04 341.515 829 359" stroke="white"/>
<path opacity="0.4" d="M528 416C528 380.101 568.398 351 618.232 351C651.707 351 680.925 364.131 696.5 383.633" stroke="white"/>
<path opacity="0.4" d="M749.524 195C758.023 177.35 768.356 167 779.5 167C808.495 167 832 237.067 832 323.5C832 336.426 831.474 348.986 830.483 361" stroke="white"/>
<path opacity="0.4" d="M575 274.5C575 221.205 626.04 178 689 178C711.863 178 733.154 183.697 751 193.506" stroke="white"/>
<path opacity="0.4" d="M342 310C342 267.474 398.321 233 467.796 233C514.528 233 555.308 248.598 577 271.752" stroke="white"/>
<path opacity="0.4" d="M695.332 384.5C698.859 352.797 730.047 328 768 328C794.505 328 817.711 340.094 830.5 358.188" stroke="white"/>
<path opacity="0.5" d="M56.5 311C88 267 167.5 265 179.5 357" stroke="white"/>
</svg>
